<?xml version="1.0" encoding="UTF-8" standalone="no"?>
<svg
   width="500"
   zoomAndPan="magnify"
   viewBox="0 0 375 374.999991"
   height="500"
   preserveAspectRatio="xMidYMid meet"
   version="1.0"
   id="svg24"
   sodipodi:docname="4.svg"
   inkscape:version="1.2.1 (9c6d41e410, 2022-07-14)"
   xmlns:inkscape="http://www.inkscape.org/namespaces/inkscape"
   xmlns:sodipodi="http://sodipodi.sourceforge.net/DTD/sodipodi-0.dtd"
   xmlns="http://www.w3.org/2000/svg"
   xmlns:svg="http://www.w3.org/2000/svg">
  <sodipodi:namedview
     id="namedview26"
     pagecolor="#ffffff"
     bordercolor="#000000"
     borderopacity="0.25"
     inkscape:showpageshadow="2"
     inkscape:pageopacity="0.0"
     inkscape:pagecheckerboard="0"
     inkscape:deskcolor="#d1d1d1"
     showgrid="false"
     inkscape:zoom="0.566"
     inkscape:cx="98.056537"
     inkscape:cy="408.12721"
     inkscape:window-width="1366"
     inkscape:window-height="714"
     inkscape:window-x="0"
     inkscape:window-y="24"
     inkscape:window-maximized="1"
     inkscape:current-layer="svg24" />
  <defs
     id="defs8">
    <clipPath
       id="id1">
      <path
         d="M 104.441406 122.402344 L 270.191406 122.402344 L 270.191406 252.902344 L 104.441406 252.902344 Z M 104.441406 122.402344 "
         clip-rule="nonzero"
         id="path2" />
    </clipPath>
    <clipPath
       id="id2">
      <path
         d="M 104.441406 218 L 270.191406 218 L 270.191406 252.902344 L 104.441406 252.902344 Z M 104.441406 218 "
         clip-rule="nonzero"
         id="path5" />
    </clipPath>
  </defs>
  <g
     clip-path="url(#id1)"
     id="g16"
     transform="matrix(2,0,0,2.0000025,-185.82107,-186.07583)">
    <path
       fill="#0096ff"
       d="m 104.44141,252.84375 45.14843,-74.79688 0.20313,-0.33593 0.10156,-0.17188 0.50781,-0.83984 0.10157,-0.17188 0.40625,-0.67187 0.10546,-0.16797 0.10157,-0.17188 0.40625,-0.67187 0.10156,-0.17188 0.50781,-0.83984 0.10156,-0.17187 0.10157,-0.16797 0.10547,-0.16797 0.30468,-0.50391 0.10157,-0.17187 0.40625,-0.67188 0.10156,-0.17187 0.50781,-0.83985 0.10156,-0.17187 0.10547,-0.16797 0.40625,-0.67188 0.10156,-0.17187 0.40625,-0.67188 0.10157,-0.17187 0.40625,-0.67188 0.10547,-0.16796 0.10156,-0.17188 0.40625,-0.67187 0.10156,-0.17188 0.40625,-0.67187 0.10156,-0.17188 0.30469,-0.50391 0.10547,-0.16796 0.20312,-0.33594 0.10157,-0.17188 0.40625,-0.67187 0.10156,-0.17188 0.40625,-0.67187 0.10156,-0.17188 0.10156,-0.16797 0.10547,-0.16796 0.0977,-0.16797 0.10547,-0.16797 0.10156,-0.16797 0.10156,-0.17188 0.50782,-0.83984 0.10156,-0.17187 0.40625,-0.67188 0.10156,-0.17187 0.10547,-0.16797 0.40625,-0.67188 0.10156,-0.17187 0.40625,-0.67188 0.10156,-0.17187 0.50782,-0.83985 0.10156,-0.17187 0.10547,-0.16797 0.40625,-0.67188 0.10156,-0.17187 0.40625,-0.67188 0.10156,-0.17187 0.50782,-0.83984 0.10546,-0.17188 0.50782,-0.83984 0.10156,-0.17188 0.40625,-0.67187 0.10156,-0.17188 0.40625,-0.67187 0.10547,-0.17188 0.50781,-0.83984 0.10157,-0.17188 0.50781,-0.83984 0.10156,-0.17188 0.40625,-0.67187 0.10547,-0.16797 0.10156,-0.17187 0.40625,-0.67188 0.10156,-0.17187 0.40625,-0.67188 0.10157,-0.17187 0.40625,-0.67188 0.10547,-0.16797 0.10156,-0.17187 0.40625,-0.67188 0.10156,-0.17187 0.50781,-0.83985 0.10157,-0.17187 0.30468,-0.50391 0.10547,-0.16797 0.10156,-0.16797 0.10157,-0.17187 0.40625,-0.67188 0.10156,-0.17187 0.50781,-0.83984 0.10156,-0.17188 0.30469,-0.50391 0.10547,-0.16796 0.10156,-0.16797 0.10157,-0.17188 0.30468,-0.5039 0.10157,-0.17188 0.60937,-1.00781 0.10156,-0.17188 0.20313,-0.33593 0.10547,-0.16797 0.20312,-0.33594 0.10156,-0.17188 0.30469,-0.5039 0.10156,-0.17188 0.60938,-1.00781 0.10156,-0.17187 0.10547,-0.16797 0.40625,-0.67188 0.10156,-0.17187 0.40625,-0.67188 0.10157,-0.17187 0.20312,-0.33594 0.0508,-0.082 0.0508,-0.0859 0.0742,-0.125 0.004,-0.004 c 0.043,-0.0742 0.0898,-0.15234 0.13281,-0.23046 h 0.004 v -0.004 l 0.008,-0.0117 0.004,-0.008 0.008,-0.008 v -0.004 l 0.004,-0.0117 h 0.004 v -0.004 l 0.004,-0.004 v -0.004 l 0.004,-0.004 0.004,-0.008 0.004,-0.004 0.004,-0.008 0.004,-0.004 v -0.004 l 0.004,-0.004 v -0.004 l 0.004,-0.008 0.004,-0.004 v -0.004 l 0.004,-0.004 v -0.004 l 0.008,-0.008 0.004,-0.008 0.004,-0.004 v -0.008 c 0.0352,-0.0547 0.0664,-0.10938 0.0977,-0.16797 l 0.008,-0.008 0.004,-0.008 v -0.004 l 0.004,-0.004 0.008,-0.0117 v -0.004 l 0.004,-0.004 v -0.004 l 0.0117,-0.0156 v -0.004 l 0.004,-0.004 v -0.004 l 0.008,-0.008 v -0.004 l 0.004,-0.004 0.0156,-0.0312 0.004,-0.004 0.004,-0.008 0.004,-0.004 0.008,-0.0195 h 0.004 v -0.008 h 0.004 v -0.004 l 0.0977,-0.16797 c 0.0625,-0.11328 0.125,-0.22656 0.1875,-0.33984 h 0.004 v -0.008 h 0.004 l 0.0234,-0.0469 h 0.004 v -0.008 h 0.004 v -0.008 h 0.004 l 0.0234,-0.0469 h 0.004 v -0.008 h 0.004 v -0.008 h 0.004 l 0.0117,-0.0234 v -0.004 l 0.004,-0.004 V 132 l 0.0937,-0.16797 0.008,-0.008 0.004,-0.008 v -0.004 l 0.004,-0.004 0.004,-0.008 0.004,-0.004 v -0.004 l 0.004,-0.008 0.004,-0.004 v -0.004 l 0.004,-0.004 v -0.004 h 0.004 v -0.004 l 0.004,-0.004 v -0.004 l 0.008,-0.008 v -0.008 l 0.008,-0.008 v -0.004 l 0.004,-0.004 v -0.004 l 0.004,-0.004 v -0.004 l 0.008,-0.008 v -0.008 h 0.004 v -0.004 l 0.004,-0.004 0.004,-0.008 v -0.004 l 0.004,-0.004 0.004,-0.008 0.004,-0.004 0.0937,-0.16797 0.0273,-0.0547 0.008,-0.008 0.0273,-0.0547 0.008,-0.008 0.0195,-0.0391 0.004,-0.004 0.10938,-0.20312 0.0195,-0.0312 0.0352,-0.0625 0.0234,-0.043 0.0937,-0.16797 v -0.004 l 0.008,-0.0117 0.004,-0.004 v -0.008 l 0.008,-0.008 v -0.004 l 0.004,-0.004 v -0.004 h 0.004 v -0.004 l 0.004,-0.008 0.004,-0.004 v -0.004 l 0.0117,-0.0195 0.004,-0.004 0.0195,-0.0352 0.004,-0.008 v -0.004 l 0.004,-0.004 0.004,-0.008 0.10547,-0.1875 0.0117,-0.0234 0.008,-0.008 v -0.004 l 0.008,-0.0117 v -0.004 l 0.0156,-0.0273 0.008,-0.0117 0.004,-0.004 v -0.004 l 0.004,-0.004 0.0195,-0.043 0.004,-0.004 0.008,-0.0156 0.004,-0.004 0.0977,-0.17188 v -0.004 l 0.004,-0.004 0.004,-0.008 0.004,-0.004 v -0.004 l 0.004,-0.008 0.004,-0.004 v -0.004 h 0.004 l 0.004,-0.008 v -0.004 l 0.004,-0.004 0.004,-0.008 0.004,-0.004 v -0.004 l 0.004,-0.008 0.004,-0.004 v -0.004 h 0.004 v -0.008 l 0.008,-0.008 v -0.004 l 0.0156,-0.0273 0.004,-0.004 0.11329,-0.19922 0.004,-0.008 0.004,-0.004 v -0.004 l 0.004,-0.004 v -0.004 l 0.004,-0.008 0.008,-0.008 v -0.004 l 0.004,-0.004 0.004,-0.008 0.004,-0.004 v -0.008 l 0.0156,-0.0195 v -0.004 l 0.004,-0.004 0.043,-0.0742 0.0977,-0.16796 0.004,-0.008 v -0.004 l 0.004,-0.004 c 0.0937,-0.16406 0.19141,-0.32812 0.28906,-0.49219 0.0352,-0.0547 0.0703,-0.11328 0.10157,-0.16797 l 0.004,-0.004 v -0.004 l 0.0117,-0.0117 v -0.008 l 0.008,-0.008 v -0.004 l 0.004,-0.004 0.008,-0.0117 v -0.004 l 0.004,-0.004 0.0195,-0.0312 0.004,-0.008 c 0.082,-0.13281 0.16796,-0.26953 0.25,-0.40625 0.0352,-0.0547 0.0742,-0.10937 0.10937,-0.16797 l 0.004,-0.004 v -0.004 l 0.0273,-0.0391 0.008,-0.0156 c 0.0977,-0.14843 0.19141,-0.29687 0.28907,-0.4414 0.0391,-0.0586 0.0781,-0.11328 0.11328,-0.16797 0.11718,-0.17188 0.23828,-0.33984 0.35547,-0.50781 0.043,-0.0547 0.082,-0.11328 0.125,-0.16797 0.0898,-0.1211 0.17968,-0.24219 0.27343,-0.36328 l 0.004,-0.004 0.0195,-0.0273 0.0156,-0.0156 v -0.004 l 0.0117,-0.0117 v -0.004 l 0.0117,-0.0117 v -0.004 l 0.008,-0.004 v -0.004 l 0.004,-0.004 v -0.004 c 0.10547,-0.12891 0.20703,-0.25781 0.3125,-0.38281 0.0469,-0.0586 0.0977,-0.11328 0.14453,-0.16797 0.10547,-0.125 0.21485,-0.24609 0.32422,-0.36328 l 0.004,-0.004 v -0.004 l 0.0547,-0.0547 v -0.004 l 0.0391,-0.0391 0.004,-0.008 h 0.004 l 0.004,-0.008 0.0234,-0.0234 c 0.0547,-0.0547 0.10938,-0.11328 0.16407,-0.16797 L 182,125.01563 v -0.004 h 0.004 l 0.0937,-0.0937 c 0.0586,-0.0547 0.11718,-0.11328 0.17578,-0.16797 l 0.008,-0.008 0.008,-0.004 0.004,-0.004 v -0.004 l 0.008,-0.004 0.0352,-0.0352 h 0.004 l 0.004,-0.008 0.008,-0.004 0.0195,-0.0195 h 0.004 l 0.004,-0.008 h 0.004 v -0.004 l 0.008,-0.004 0.004,-0.008 h 0.004 l 0.0156,-0.0156 h 0.004 v -0.004 l 0.008,-0.004 v -0.004 l 0.008,-0.008 h 0.004 l 0.0156,-0.0156 0.008,-0.004 c 0.0859,-0.082 0.17578,-0.16015 0.26953,-0.23437 l 0.0195,-0.0156 0.0195,-0.0195 h 0.004 l 0.0156,-0.0156 h 0.004 l 0.004,-0.008 h 0.004 l 0.008,-0.008 h 0.004 l 0.0156,-0.0156 c 0.15235,-0.125 0.3086,-0.2461 0.46875,-0.35938 0.082,-0.0586 0.16016,-0.11328 0.24219,-0.16797 0.27735,-0.18359 0.5625,-0.35547 0.85938,-0.50781 0.11718,-0.0586 0.23437,-0.11328 0.35156,-0.16797 0.48828,-0.21875 1,-0.39062 1.54687,-0.50391 0.32813,-0.0703 0.66797,-0.12109 1.01954,-0.15234 0.35546,0.0312 0.69531,0.082 1.02343,0.15234 0.54688,0.11329 1.0586,0.28516 1.54297,0.50391 0.1211,0.0547 0.23828,0.10938 0.35156,0.16797 h 0.004 c 0.29688,0.15234 0.58203,0.32422 0.85938,0.50781 h -0.004 c 0.082,0.0547 0.16406,0.10938 0.24609,0.16797 0.17969,0.12891 0.35547,0.26563 0.52344,0.40625 l 0.004,0.004 0.008,0.004 0.004,0.008 h 0.008 v 0.004 l 0.008,0.004 v 0.004 l 0.004,0.004 0.008,0.004 0.0117,0.0117 0.008,0.004 0.0156,0.0156 h 0.004 l 0.0156,0.0156 h 0.004 l 0.008,0.008 v 0.004 l 0.008,0.004 0.004,0.004 c 0.0625,0.0547 0.12891,0.10938 0.19141,0.16797 l 0.008,0.004 0.004,0.008 h 0.004 l 0.0156,0.0156 h 0.004 l 0.008,0.008 v 0.004 l 0.008,0.004 0.008,0.008 v 0.004 h 0.004 l 0.0234,0.0234 h 0.004 l 0.004,0.008 h 0.004 l 0.008,0.008 v 0.004 l 0.0156,0.0117 0.004,0.004 0.008,0.004 0.004,0.008 h 0.004 l 0.0352,0.0352 0.008,0.004 v 0.004 c 0.0742,0.0664 0.14454,0.13672 0.21485,0.20313 l 0.004,0.004 v 0.004 l 0.008,0.004 0.0391,0.0391 v 0.004 l 0.0312,0.0312 0.008,0.004 v 0.004 h 0.004 l 0.004,0.008 h 0.004 l 0.0234,0.0234 0.004,0.008 h 0.004 c 0.0547,0.0586 0.10938,0.11328 0.16406,0.16797 l 0.004,0.008 0.0469,0.0469 v 0.004 l 0.008,0.004 v 0.004 l 0.043,0.043 v 0.004 l 0.043,0.043 0.004,0.008 c 0.10547,0.11328 0.20703,0.22656 0.30859,0.34375 0.0469,0.0547 0.0937,0.11328 0.14063,0.16797 0.11328,0.13281 0.21875,0.26562 0.32812,0.40234 l 0.008,0.0156 h 0.004 l 0.004,0.008 0.008,0.008 0.004,0.008 h 0.004 l 0.008,0.0156 h 0.004 l 0.004,0.008 c 0.0977,0.125 0.19531,0.25 0.28906,0.37891 0.0391,0.0547 0.082,0.11328 0.1211,0.16797 0.12109,0.16797 0.23828,0.33593 0.35546,0.50781 0.0391,0.0547 0.0781,0.11328 0.11329,0.16797 0.0977,0.14453 0.19531,0.29297 0.28906,0.4414 l 0.0156,0.0234 0.008,0.008 0.004,0.008 v 0.004 l 0.004,0.004 0.004,0.008 h 0.004 v 0.004 l 0.004,0.004 v 0.004 c 0.0352,0.0547 0.0703,0.10937 0.10547,0.16797 0.082,0.125 0.16015,0.25 0.23828,0.3789 l 0.008,0.0156 0.004,0.004 v 0.004 l 0.008,0.008 0.004,0.008 v 0.004 l 0.008,0.008 v 0.004 l 0.004,0.004 v 0.004 h 0.004 v 0.004 l 0.004,0.004 v 0.004 l 0.008,0.008 v 0.004 l 0.004,0.004 v 0.004 l 0.008,0.008 v 0.004 l 0.008,0.008 v 0.004 l 0.004,0.004 v 0.004 c 0.0352,0.0586 0.0703,0.11329 0.10156,0.16797 0.10156,0.16797 0.20312,0.33985 0.30078,0.50782 l 0.0977,0.16796 c 0.0937,0.16407 0.1875,0.32813 0.28125,0.49219 l 0.008,0.0156 0.0937,0.16797 0.008,0.0117 0.004,0.004 0.004,0.0117 0.004,0.004 v 0.004 h 0.004 l 0.0234,0.0469 h 0.004 v 0.008 l 0.008,0.008 v 0.004 l 0.004,0.004 v 0.004 l 0.004,0.004 v 0.004 l 0.008,0.008 v 0.008 l 0.008,0.008 v 0.004 l 0.004,0.004 v 0.004 l 0.008,0.008 v 0.004 l 0.004,0.004 0.0937,0.16797 v 0.004 h 0.004 v 0.008 l 0.0117,0.0156 v 0.004 l 0.004,0.004 v 0.004 l 0.008,0.008 v 0.008 l 0.008,0.008 v 0.004 l 0.004,0.004 v 0.004 l 0.004,0.004 v 0.004 l 0.008,0.008 v 0.004 l 0.004,0.004 v 0.004 l 0.004,0.004 0.004,0.008 v 0.004 l 0.004,0.004 0.004,0.008 0.004,0.004 v 0.004 l 0.004,0.008 0.008,0.008 v 0.008 h 0.004 v 0.004 l 0.004,0.004 0.0937,0.16797 v 0.004 l 0.004,0.008 0.008,0.008 0.0273,0.0547 0.008,0.008 0.0195,0.0391 0.0156,0.0234 0.004,0.008 0.004,0.0117 0.004,0.008 0.0937,0.16796 v 0.004 l 0.008,0.008 0.0273,0.0547 0.008,0.008 0.0273,0.0547 0.008,0.008 0.0156,0.0312 0.0937,0.16797 v 0.004 h 0.004 v 0.008 h 0.004 v 0.004 l 0.004,0.004 v 0.004 l 0.008,0.008 v 0.008 l 0.004,0.004 0.004,0.008 0.004,0.004 v 0.004 l 0.008,0.008 v 0.004 l 0.004,0.004 v 0.004 l 0.004,0.004 v 0.004 l 0.004,0.004 0.0156,0.0273 v 0.004 l 0.004,0.008 0.004,0.004 0.0117,0.0195 0.004,0.008 v 0.004 l 0.004,0.004 0.0937,0.17188 h 0.004 v 0.004 l 0.0273,0.0469 v 0.004 l 0.004,0.004 0.008,0.0117 v 0.008 h 0.004 v 0.004 l 0.004,0.004 v 0.004 l 0.008,0.0117 0.004,0.004 0.004,0.0117 v 0.004 l 0.008,0.008 v 0.004 l 0.004,0.004 0.004,0.008 0.008,0.0117 v 0.004 l 0.004,0.008 0.1211,0.21485 0.004,0.004 0.0117,0.0234 0.004,0.004 v 0.004 h 0.004 v 0.008 l 0.008,0.008 v 0.004 l 0.0117,0.0195 0.004,0.004 v 0.004 l 0.004,0.004 v 0.004 l 0.004,0.004 v 0.004 l 0.004,0.004 v 0.004 h 0.004 v 0.004 l 0.004,0.004 v 0.004 l 0.004,0.004 0.0937,0.16797 0.004,0.004 0.004,0.008 0.004,0.004 v 0.008 l 0.0117,0.0117 v 0.004 l 0.004,0.004 v 0.004 l 0.004,0.004 v 0.004 l 0.008,0.008 v 0.008 l 0.008,0.008 v 0.004 l 0.008,0.008 v 0.008 h 0.004 v 0.004 l 0.004,0.004 0.004,0.008 v 0.004 l 0.004,0.004 0.004,0.008 0.008,0.008 v 0.008 l 0.0117,0.0156 v 0.004 l 0.004,0.004 0.0977,0.16797 0.004,0.008 0.004,0.004 v 0.008 l 0.008,0.008 v 0.004 l 0.004,0.004 v 0.004 h 0.004 v 0.004 l 0.004,0.004 v 0.004 l 0.008,0.008 v 0.004 l 0.004,0.004 v 0.004 l 0.004,0.008 0.004,0.004 v 0.004 h 0.004 l 0.004,0.008 v 0.004 l 0.004,0.004 0.004,0.008 0.004,0.004 v 0.004 l 0.004,0.008 0.004,0.004 v 0.004 h 0.004 l 0.004,0.008 v 0.004 l 0.004,0.004 v 0.004 l 0.008,0.008 v 0.004 l 0.004,0.004 v 0.004 c 0.0352,0.0547 0.0664,0.11328 0.10156,0.16797 v 0.004 l 0.008,0.008 v 0.004 l 0.004,0.004 v 0.004 l 0.008,0.008 v 0.004 l 0.004,0.004 v 0.004 l 0.008,0.008 v 0.004 l 0.008,0.0117 0.004,0.004 0.0586,0.0977 h -0.004 l 0.0547,0.0859 0.0469,0.082 0.20313,0.33594 0.10546,0.17187 0.40625,0.67188 0.10157,0.17187 0.50781,0.83985 0.10156,0.17187 0.30469,0.50391 0.10547,0.16797 0.10156,0.16796 0.10156,0.17188 0.30469,0.50391 0.10156,0.17187 0.50782,0.83984 0.10156,0.17188 0.20312,0.33594 0.10547,0.16797 0.30469,0.5039 0.10156,0.17188 0.40625,0.67187 0.10156,0.17188 0.50782,0.83984 0.10156,0.17188 0.10156,0.16796 0.10547,0.16797 0.30469,0.50391 0.10156,0.17187 0.40625,0.67188 0.10156,0.17187 0.50782,0.83985 0.10156,0.17187 0.10547,0.16797 0.40625,0.67188 0.10156,0.17187 0.40625,0.67188 0.10156,0.17187 0.50781,0.83985 0.10547,0.17187 0.40625,0.67188 0.10157,0.17187 0.40625,0.67188 0.10156,0.17187 0.60937,1.00781 0.10547,0.17188 0.40625,0.67187 0.10156,0.17188 0.50782,0.83984 0.10156,0.17188 0.40625,0.67187 0.10547,0.17188 0.40625,0.67187 0.10156,0.17188 0.50781,0.83984 0.10157,0.17188 0.30468,0.5039 0.10547,0.16797 0.10156,0.16797 0.10157,0.17187 0.40625,0.67188 0.10156,0.17187 0.50781,0.83985 0.10156,0.17187 0.10547,0.16797 0.40625,0.67188 0.10157,0.17187 0.40625,0.67188 0.10156,0.17187 0.50781,0.83985 0.10156,0.17187 0.10547,0.16797 0.30469,0.50391 0.10156,0.17187 0.50781,0.83984 0.10157,0.17188 0.50781,0.83984 0.10547,0.17188 0.40625,0.67187 0.10156,0.17188 0.40625,0.67187 0.10156,0.17188 0.50782,0.83984 0.10546,0.17188 0.50782,0.83984 0.10156,0.17188 0.40625,0.67187 0.10156,0.17188 0.10156,0.16796 0.10547,0.16797 0.0977,0.16797 0.10547,0.16797 0.10156,0.16797 0.10156,0.17187 0.40625,0.67188 0.10157,0.17187 0.50781,0.83985 0.10156,0.17187 0.10547,0.16797 0.40625,0.67188 0.10156,0.17187 0.30469,0.50391 0.10156,0.17187 0.50781,0.83985 0.10547,0.17187 0.60938,1.00781 0.10156,0.17188 0.40625,0.67187 0.10156,0.17188 0.10157,0.16797 0.10546,0.16797 0.20313,0.33593 0.10156,0.17188 0.60938,1.00781 0.10156,0.17188 0.20312,0.33593 45.14844,74.79688 c -23.41015,-0.14453 -72.71484,4.0625 -75.86328,-38.89453 -0.375,-5.14844 9.46484,-4.65625 17.58203,-10.07031 4.95313,-3.3086 7.01563,-7.27735 6.17188,-11.91407 -7.47266,9.96094 -23.89063,1.65235 -30.76563,9.3125 -6.8789,-7.66015 -23.29687,0.64844 -30.76953,-9.3125 -0.83984,4.63672 1.21484,8.60547 6.17188,11.91407 8.11718,5.41406 17.96093,4.92187 17.58203,10.07031 -3.14844,42.95703 -52.45703,38.75 -75.85938,38.89453 z m 0,0"
       fill-opacity="1"
       fill-rule="evenodd"
       id="path14" />
  </g>
  <g
     clip-path="url(#id2)"
     id="g20"
     transform="matrix(2,0,0,2.0000025,-185.82107,-186.07583)">
    <path
       fill="#00d7ff"
       d="m 194.91406,218.82422 c 6.42188,37.75781 52.79688,33.88281 75.27735,34.01953 -21.00391,-20.91016 -47.89063,-32.25 -75.27735,-34.01953 z m -90.47265,34.01953 c 22.48437,-0.13672 68.85937,3.73828 75.27734,-34.01953 -27.38672,1.76953 -54.26953,13.10937 -75.27734,34.01953 z m 0,0"
       fill-opacity="1"
       fill-rule="evenodd"
       id="path18" />
  </g>
  <path
     fill="#72ffff"
     d="m 188.82736,216.5028 c -13.78125,-15.32814 -46.60156,1.28906 -61.53906,-18.6172 -1.71094,9.25783 2.45312,17.20314 12.35156,23.81253 16.23437,10.82813 35.88281,9.84375 35.13281,20.14064 -0.20312,3.39845 -0.60937,6.63283 -1.15625,9.73439 -1.09375,0.0546 -2.1875,0.1328 -3.34375,0.21094 v 0.0546 c -35.34375,2.78127 -70.28125,13.59378 -101.73437,32.39848 l 56.90625,-94.26573 4.4375,5.9375 c 13.09375,17.43752 43.04687,3.17969 58.94531,16.10158 15.89844,-12.92189 45.85156,1.33594 58.95312,-16.10158 l 4.42969,-5.9375 56.90625,94.26573 C 277.6633,265.43248 242.79611,254.61997 207.38986,251.8387 v -0.0546 c -1.16406,-0.0782 -2.25,-0.1562 -3.34375,-0.21094 -0.54688,-3.10156 -0.95313,-6.33594 -1.16406,-9.73439 -0.75,-10.29689 18.89843,-9.31251 35.14062,-20.14064 9.89063,-6.60939 14.05469,-14.5547 12.35156,-23.81253 -14.94531,19.90626 -47.76562,3.28906 -61.54687,18.6172 z m 0,0"
     fill-opacity="1"
     fill-rule="evenodd"
     id="path22"
     style="stroke-width:2" />
</svg>
