<?xml version="1.0" encoding="UTF-8" standalone="no"?>
<svg
   xmlns:dc="http://purl.org/dc/elements/1.1/"
   xmlns:cc="http://creativecommons.org/ns#"
   xmlns:rdf="http://www.w3.org/1999/02/22-rdf-syntax-ns#"
   xmlns:svg="http://www.w3.org/2000/svg"
   xmlns="http://www.w3.org/2000/svg"
   xmlns:sodipodi="http://sodipodi.sourceforge.net/DTD/sodipodi-0.dtd"
   xmlns:inkscape="http://www.inkscape.org/namespaces/inkscape"
   width="100.0px"
   height="100.0px"
   viewBox="0 0 100.0 100.0"
   version="1.1"
   id="SVGRoot"
   sodipodi:docname="control_center.svg"
   inkscape:version="1.0.2 (e86c870879, 2021-01-15)">
  <defs
     id="defs857" />
  <sodipodi:namedview
     id="base"
     pagecolor="#ffffff"
     bordercolor="#666666"
     borderopacity="1.0"
     inkscape:pageopacity="0.0"
     inkscape:pageshadow="2"
     inkscape:zoom="22.627417"
     inkscape:cx="62.264733"
     inkscape:cy="88.520287"
     inkscape:document-units="px"
     inkscape:current-layer="layer1"
     inkscape:document-rotation="0"
     showgrid="true"
     inkscape:window-width="1366"
     inkscape:window-height="738"
     inkscape:window-x="0"
     inkscape:window-y="0"
     inkscape:window-maximized="1">
    <inkscape:grid
       type="xygrid"
       id="grid1436" />
  </sodipodi:namedview>
  <metadata
     id="metadata860">
    <rdf:RDF>
      <cc:Work
         rdf:about="">
        <dc:format>image/svg+xml</dc:format>
        <dc:type
           rdf:resource="http://purl.org/dc/dcmitype/StillImage" />
        <dc:title />
      </cc:Work>
    </rdf:RDF>
  </metadata>
  <g
     inkscape:label="Layer 1"
     inkscape:groupmode="layer"
     id="layer1">
    <path
       d="m 25.00002,15.00001 c -8.284271,0 -15,7.928932 -15,15 0,7.071068 6.715729,15 15,15 0.02029,0 49.982964,-0.0027 50.003832,-0.0028 8.499997,-0.0328 14.994644,-7.929954 14.995064,-14.999815 4.2e-4,-7.06954 -6.580735,-14.991152 -14.992601,-15.000916 -0.03622,-4e-5 -49.994324,0.0035 -50.006295,0.0035 m 0,3 c 0.01204,0 49.994848,-0.0013 50.007148,-0.0012 7.397673,0.01951 12.002093,6.346445 12.000509,12.004473 -0.0016,5.659436 -4.379784,11.950792 -12.010214,12.000737 -0.03281,1.92e-4 -49.945004,0.0079 -49.976044,0.0079 -7.248737,0 -12.066986,-6.328855 -12.070214,-12.002983 -0.0032,-5.670414 4.800078,-12.008927 12.048815,-12.008927"
       fill="#363636"
       id="path2"
       style="stroke-width:1.87501"
       sodipodi:nodetypes="cassasccsassac" />
    <path
       d="m 25.05284,19.990366 c -5.522847,0 -10,4.477153 -10,10 0,5.522847 4.477153,10 10,10 5.522847,0 10,-4.477153 10,-10 0,-5.522847 -4.477153,-10 -10,-10 z M 25.00002,30.00001 c 4.832492,0 0.0235,-4.77839 0.0235,0.0541 0,4.832491 4.848657,0.09815 0.01616,0.09815 -4.832492,0 -0.0026,4.771487 -0.0026,-0.06101 C 25.037049,25.258759 20.167504,30 25,30 Z"
       fill="#363636"
       id="path2-3"
       style="stroke-width:1.25"
       sodipodi:nodetypes="ssssssssss" />
    <path
       d="m 25,55 c -8.284271,0 -15,7.928932 -15,15 0,7.071068 6.715729,15 15,15 0.02029,0 49.982964,-0.0027 50.00383,-0.0028 8.5,-0.0328 14.99465,-7.929954 14.99507,-14.999815 C 89.99932,62.927845 83.41816,55.006233 75.00629,54.996469 74.970077,54.996429 25.011971,55 25,55 m 50,5 c 0.01204,0 -0.0079,-5.93e-4 0.0044,-4.93e-4 7.39767,0.01951 10.013033,5.296832 10.032368,10.024162 0.01947,4.760842 -2.390143,10.127587 -10.02057,10.177532 -0.03281,1.92e-4 0.03635,-0.0082 0.0053,-0.0082 -7.248737,0 -9.986225,-5.435974 -9.967589,-10.186608 C 65.07236,65.303542 67.751263,60 75,60"
       fill="#363636"
       id="path2-36"
       style="stroke-width:1.87501"
       sodipodi:nodetypes="cassasccsassac" />
    <path
       class="ColorScheme-Text"
       d="m 75,59.08333 c -6.075131,0 -11,4.924869 -11,11 0,6.075131 4.924869,11 11,11 6.075131,0 11,-4.924869 11,-11 0,-6.075131 -4.924869,-11 -11,-11 z M 75,60 c 5.568687,0 10.083,4.514313 10.083,10.083 0,5.568687 -4.514313,10.083 -10.083,10.083 -5.568687,0 -10.083,-4.514313 -10.083,-10.083 C 64.917,64.514313 69.431313,60 75,60 Z"
       fill="#363636"
       stroke-width="0.916671"
       id="path5"
       style="color:#dedede;fill:#ffffff;fill-opacity:1"
       sodipodi:nodetypes="ssssssssss" />
  </g>
</svg>
