<?xml version="1.0" encoding="UTF-8" standalone="no"?>
<svg
   xmlns:dc="http://purl.org/dc/elements/1.1/"
   xmlns:cc="http://creativecommons.org/ns#"
   xmlns:rdf="http://www.w3.org/1999/02/22-rdf-syntax-ns#"
   xmlns:svg="http://www.w3.org/2000/svg"
   xmlns="http://www.w3.org/2000/svg"
   xmlns:sodipodi="http://sodipodi.sourceforge.net/DTD/sodipodi-0.dtd"
   xmlns:inkscape="http://www.inkscape.org/namespaces/inkscape"
   width="24"
   height="24"
   version="1.1"
   viewBox="0 0 24 24"
   id="svg7"
   sodipodi:docname="sounds.svg"
   inkscape:version="1.0.2 (e86c870879, 2021-01-15)">
  <metadata
     id="metadata11">
    <rdf:RDF>
      <cc:Work
         rdf:about="">
        <dc:format>image/svg+xml</dc:format>
        <dc:type
           rdf:resource="http://purl.org/dc/dcmitype/StillImage" />
      </cc:Work>
    </rdf:RDF>
  </metadata>
  <sodipodi:namedview
     pagecolor="#ffffff"
     bordercolor="#666666"
     borderopacity="1"
     objecttolerance="10"
     gridtolerance="10"
     guidetolerance="10"
     inkscape:pageopacity="0"
     inkscape:pageshadow="2"
     inkscape:window-width="1366"
     inkscape:window-height="714"
     id="namedview9"
     showgrid="false"
     inkscape:zoom="22.666667"
     inkscape:cx="12"
     inkscape:cy="10.235294"
     inkscape:window-x="0"
     inkscape:window-y="24"
     inkscape:window-maximized="1"
     inkscape:current-layer="svg7" />
  <defs
     id="defs3">
    <style
       id="current-color-scheme"
       type="text/css">.ColorScheme-Text {
        color:#dedede;
      }</style>
  </defs>
  <path
     class="ColorScheme-Text"
     d="M 12.000043,0 A 11.250043,11.999234 0 0 0 0.75,11.999234 11.250043,11.999234 0 0 0 6.2871302,22.31637 0.78125918,0.83327889 0 0 0 6.7546679,22.484325 0.78125918,0.83327889 0 0 0 7.535927,21.651046 0.78125918,0.83327889 0 0 0 7.1623975,20.940152 9.6875519,10.332736 0 0 1 2.3125043,11.999264 9.6875519,10.332736 0 0 1 12.000056,1.6665278 9.6875519,10.332736 0 0 1 21.687608,11.999264 9.6875519,10.332736 0 0 1 16.836449,20.937602 l 0.0024,0.0039 a 0.78125918,0.83327889 0 0 0 -0.399166,0.725253 0.78125918,0.83327889 0 0 0 0.78126,0.833279 0.78125918,0.83327889 0 0 0 0.457764,-0.16014 A 11.250043,11.999234 0 0 0 23.25,11.999324 11.250043,11.999234 0 0 0 11.999957,9e-5 Z m 0,3.3331455 a 8.1250617,8.6660884 0 0 0 -8.1250625,8.6660885 8.1250617,8.6660884 0 0 0 4.0014993,7.452741 0.78125918,0.83327889 0 0 0 0.068359,0.04428 0.78125918,0.83327889 0 0 0 0.3747529,0.10416 0.78125918,0.83327889 0 0 0 0.7812592,-0.833279 0.78125918,0.83327889 0 0 0 -0.4211454,-0.739544 0.78125918,0.83327889 0 0 0 -0.00614,-0.0039 6.5625715,6.9995907 0 0 1 -3.2360746,-6.024293 6.5625715,6.9995907 0 0 1 6.5625711,-6.9995899 6.5625715,6.9995907 0 0 1 6.562572,6.9995899 6.5625715,6.9995907 0 0 1 -3.287403,6.055642 0.78125918,0.83327889 0 0 0 -0.391853,0.72132 0.78125918,0.83327889 0 0 0 0.781259,0.833279 0.78125918,0.83327889 0 0 0 0.39063,-0.11328 l 0.0013,0.0026 a 8.1250617,8.6660884 0 0 0 4.068572,-7.499598 8.1250617,8.6660884 0 0 0 -8.125062,-8.6660885 z m 0,3.6664452 a 4.6874707,4.9996433 0 0 0 -4.6874715,4.9996433 4.6874707,4.9996433 0 0 0 2.2851648,4.284894 0.78125918,0.83327889 0 0 0 0.047606,0.02994 0.78125918,0.83327889 0 0 0 0.01587,0.01035 0.78125918,0.83327889 0 0 0 0.3698737,0.09896 0.78125918,0.83327889 0 0 0 0.781258,-0.833219 0.78125918,0.83327889 0 0 0 -0.399165,-0.725219 3.1249805,3.3331455 0 0 1 -1.5381618,-2.865747 3.1249805,3.3331455 0 0 1 3.1249798,-3.3331447 3.1249805,3.3331455 0 0 1 3.12498,3.3331447 3.1249805,3.3331455 0 0 1 -1.566146,2.883897 l 0.0013,0.0013 a 0.78125918,0.83327889 0 0 0 -0.378423,0.713504 0.78125918,0.83327889 0 0 0 0.781259,0.833279 0.78125918,0.83327889 0 0 0 0.3772,-0.10416 4.6874707,4.9996433 0 0 0 0.01098,-0.0078 0.78125918,0.83327889 0 0 0 0.06348,-0.04296 4.6874707,4.9996433 0 0 0 2.27293,-4.277095 4.6874707,4.9996433 0 0 0 -4.687471,-4.9996433 z m 0,3.6664453 a 1.2500062,1.3332582 0 0 0 -1.250007,1.333258 1.2500062,1.3332582 0 0 0 1.250007,1.333258 1.2500062,1.3332582 0 0 0 1.250005,-1.333258 1.2500062,1.3332582 0 0 0 -1.250005,-1.333258 z"
     fill="#363636"
     stroke-width="1.33135"
     id="path5" />
</svg>
