<?xml version="1.0" encoding="UTF-8" standalone="no"?>
<svg
   xmlns:dc="http://purl.org/dc/elements/1.1/"
   xmlns:cc="http://creativecommons.org/ns#"
   xmlns:rdf="http://www.w3.org/1999/02/22-rdf-syntax-ns#"
   xmlns:svg="http://www.w3.org/2000/svg"
   xmlns="http://www.w3.org/2000/svg"
   xmlns:sodipodi="http://sodipodi.sourceforge.net/DTD/sodipodi-0.dtd"
   xmlns:inkscape="http://www.inkscape.org/namespaces/inkscape"
   width="16.0px"
   height="16.0px"
   viewBox="0 0 16.0 16.0"
   version="1.1"
   id="SVGRoot"
   sodipodi:docname="Sounds.svg"
   inkscape:version="1.0.2 (e86c870879, 2021-01-15)">
  <defs
     id="defs842" />
  <sodipodi:namedview
     id="base"
     pagecolor="#ffffff"
     bordercolor="#666666"
     borderopacity="1.0"
     inkscape:pageopacity="0.0"
     inkscape:pageshadow="2"
     inkscape:zoom="22.4"
     inkscape:cx="7.1299844"
     inkscape:cy="11.704284"
     inkscape:document-units="px"
     inkscape:current-layer="layer1"
     inkscape:document-rotation="0"
     showgrid="true"
     inkscape:window-width="1366"
     inkscape:window-height="738"
     inkscape:window-x="0"
     inkscape:window-y="0"
     inkscape:window-maximized="0">
    <inkscape:grid
       type="xygrid"
       id="grid1421" />
  </sodipodi:namedview>
  <metadata
     id="metadata845">
    <rdf:RDF>
      <cc:Work
         rdf:about="">
        <dc:format>image/svg+xml</dc:format>
        <dc:type
           rdf:resource="http://purl.org/dc/dcmitype/StillImage" />
        <dc:title></dc:title>
      </cc:Work>
    </rdf:RDF>
  </metadata>
  <g
     inkscape:label="Layer 1"
     inkscape:groupmode="layer"
     id="layer1">
    <path
       class="ColorScheme-Text"
       d="m 8,-0.1107 a 8,7.9995 0 0 0 -8,7.9995 8,7.9995 0 0 0 3.9375,6.8781 0.55556,0.55552 0 0 0 0.33247,0.11197 0.55556,0.55552 0 0 0 0.55556,-0.55552 0.55556,0.55552 0 0 0 -0.26562,-0.47393 6.8889,6.8885 0 0 1 -3.4488,-5.9606 6.8889,6.8885 0 0 1 6.8889,-6.8885 6.8889,6.8885 0 0 1 6.8889,6.8885 6.8889,6.8885 0 0 1 -3.4497,5.9589 l 0.0017,0.0026 a 0.55556,0.55552 0 0 0 -0.28385,0.48348 0.55556,0.55552 0 0 0 0.55556,0.55552 0.55556,0.55552 0 0 0 0.32552,-0.10676 8,7.9995 0 0 0 3.9618,-6.8937 8,7.9995 0 0 0 -8,-7.9995 z m 0,2.2221 a 5.7778,5.7774 0 0 0 -5.7778,5.7774 5.7778,5.7774 0 0 0 2.8455,4.9685 0.55556,0.55552 0 0 0 0.048611,0.02952 0.55556,0.55552 0 0 0 0.26649,0.06944 0.55556,0.55552 0 0 0 0.55556,-0.55552 0.55556,0.55552 0 0 0 -0.29948,-0.49303 0.55556,0.55552 0 0 0 -0.00436,-0.0026 4.6667,4.6664 0 0 1 -2.3012,-4.0162 4.6667,4.6664 0 0 1 4.6667,-4.6664 4.6667,4.6664 0 0 1 4.6667,4.6664 4.6667,4.6664 0 0 1 -2.3377,4.0371 0.55556,0.55552 0 0 0 -0.27865,0.48088 0.55556,0.55552 0 0 0 0.55556,0.55552 0.55556,0.55552 0 0 0 0.27778,-0.07552 l 8.89e-4,0.0017 A 5.7778,5.7774 0 0 0 13.7778,7.88889 5.7778,5.7774 0 0 0 8,2.11149 Z m 0,2.4443 a 3.3333,3.3331 0 0 0 -3.3333,3.3331 3.3333,3.3331 0 0 0 1.625,2.8566 0.55556,0.55552 0 0 0 0.033853,0.01996 0.55556,0.55552 0 0 0 0.011285,0.0069 0.55556,0.55552 0 0 0 0.26302,0.06597 0.55556,0.55552 0 0 0 0.55556,-0.55548 0.55556,0.55552 0 0 0 -0.28385,-0.48348 2.2222,2.2221 0 0 1 -1.0938,-1.9105 2.2222,2.2221 0 0 1 2.2222,-2.2221 2.2222,2.2221 0 0 1 2.2222,2.2221 2.2222,2.2221 0 0 1 -1.1137,1.9226 l 8.89e-4,8.89e-4 a 0.55556,0.55552 0 0 0 -0.2691,0.47567 0.55556,0.55552 0 0 0 0.55556,0.55552 0.55556,0.55552 0 0 0 0.26823,-0.06944 3.3333,3.3331 0 0 0 0.00781,-0.0052 0.55556,0.55552 0 0 0 0.045139,-0.02864 3.3333,3.3331 0 0 0 1.6163,-2.8514 3.3333,3.3331 0 0 0 -3.3333,-3.3331 z M 8,7 A 0.88889,0.88884 0 0 0 7.11111,7.88884 0.88889,0.88884 0 0 0 8,8.77768 0.88889,0.88884 0 0 0 8.88889,7.88884 0.88889,0.88884 0 0 0 8,7 Z"
       fill="currentColor"
       id="path7"
       style="color:#363636;fill:#ffffff" />
  </g>
</svg>
