<svg version="1.2" xmlns="http://www.w3.org/2000/svg" viewBox="0 0 1684 1134" width="1684" height="1134">
	<title>255-ai</title>
	<defs>
		<linearGradient id="g1" x1="1012.1" y1="728.1" x2="499.6" y2="682.4" gradientUnits="userSpaceOnUse">
			<stop offset=".2" stop-color="#0b0078"/>
			<stop offset=".6" stop-color="#0006c0"/>
			<stop offset=".8" stop-color="#0071bc"/>
		</linearGradient>
		<linearGradient id="g2" x1="1011.7" y1="733.2" x2="501.2" y2="687.7" gradientUnits="userSpaceOnUse">
			<stop offset=".2" stop-color="#0b0078"/>
			<stop offset=".6" stop-color="#0006c0"/>
			<stop offset=".8" stop-color="#0071bc"/>
		</linearGradient>
		<linearGradient id="g3" x1="1017.1" y1="708.6" x2="501.1" y2="662.6" gradientUnits="userSpaceOnUse">
			<stop offset=".2" stop-color="#0b0078"/>
			<stop offset=".6" stop-color="#0006c0"/>
			<stop offset=".8" stop-color="#0071bc"/>
		</linearGradient>
		<linearGradient id="g4" x1="1017.6" y1="702.3" x2="501.7" y2="656.3" gradientUnits="userSpaceOnUse">
			<stop offset=".2" stop-color="#0b0078"/>
			<stop offset=".6" stop-color="#0006c0"/>
			<stop offset=".8" stop-color="#0071bc"/>
		</linearGradient>
		<linearGradient id="g5" x1="1032.4" y1="501.5" x2="635.2" y2="466.1" gradientUnits="userSpaceOnUse">
			<stop offset=".2" stop-color="#0b0078"/>
			<stop offset=".6" stop-color="#0006c0"/>
			<stop offset=".8" stop-color="#0071bc"/>
		</linearGradient>
		<linearGradient id="g6" x1="1024.6" y1="624.5" x2="508.6" y2="578.5" gradientUnits="userSpaceOnUse">
			<stop offset=".2" stop-color="#0b0078"/>
			<stop offset=".6" stop-color="#0006c0"/>
			<stop offset=".8" stop-color="#0071bc"/>
		</linearGradient>
		<linearGradient id="g7" x1="1015.4" y1="727.2" x2="499.4" y2="681.2" gradientUnits="userSpaceOnUse">
			<stop offset=".2" stop-color="#0b0078"/>
			<stop offset=".6" stop-color="#0006c0"/>
			<stop offset=".8" stop-color="#0071bc"/>
		</linearGradient>
		<linearGradient id="g8" x1="1031.1" y1="551.2" x2="515.1" y2="505.2" gradientUnits="userSpaceOnUse">
			<stop offset=".2" stop-color="#0b0078"/>
			<stop offset=".6" stop-color="#0006c0"/>
			<stop offset=".8" stop-color="#0071bc"/>
		</linearGradient>
		<linearGradient id="g9" x1="1024.9" y1="646.3" x2="538.5" y2="602.9" gradientUnits="userSpaceOnUse">
			<stop offset=".2" stop-color="#0b0078"/>
			<stop offset=".6" stop-color="#0006c0"/>
			<stop offset=".8" stop-color="#0071bc"/>
		</linearGradient>
		<linearGradient id="g10" x1="787.9" y1="569.9" x2="614.9" y2="619.9" gradientUnits="userSpaceOnUse">
			<stop offset="0" stop-color="#0b0078"/>
			<stop offset=".3" stop-color="#0006c0"/>
			<stop offset="1" stop-color="#0cb7ff"/>
		</linearGradient>
		<linearGradient id="g11" x1="540.1" y1="439.8" x2="1237" y2="384.2" gradientUnits="userSpaceOnUse">
			<stop offset="0" stop-color="#812500"/>
			<stop offset=".2" stop-color="#b30056"/>
			<stop offset=".3" stop-color="#ff5945"/>
			<stop offset=".4" stop-color="#ffbd2d"/>
			<stop offset=".5" stop-color="#f5ff43"/>
			<stop offset=".6" stop-color="#82e82d"/>
			<stop offset=".7" stop-color="#00c79f"/>
			<stop offset=".8" stop-color="#00ccec"/>
			<stop offset="1" stop-color="#69dbff"/>
		</linearGradient>
		<linearGradient id="g12" x1="572.3" y1="409.6" x2="1154.7" y2="363.1" gradientUnits="userSpaceOnUse">
			<stop offset="0" stop-color="#812500"/>
			<stop offset=".2" stop-color="#b30056"/>
			<stop offset=".3" stop-color="#ff5945"/>
			<stop offset=".4" stop-color="#ffbd2d"/>
			<stop offset=".5" stop-color="#f5ff43"/>
			<stop offset=".6" stop-color="#82e82d"/>
			<stop offset=".7" stop-color="#00c79f"/>
			<stop offset=".8" stop-color="#00ccec"/>
			<stop offset="1" stop-color="#69dbff"/>
		</linearGradient>
		<linearGradient id="g13" x1="551.4" y1="420.6" x2="1128.5" y2="374.6" gradientUnits="userSpaceOnUse">
			<stop offset="0" stop-color="#812500"/>
			<stop offset=".2" stop-color="#b30056"/>
			<stop offset=".3" stop-color="#ff5945"/>
			<stop offset=".4" stop-color="#ffbd2d"/>
			<stop offset=".5" stop-color="#f5ff43"/>
			<stop offset=".6" stop-color="#82e82d"/>
			<stop offset=".7" stop-color="#00c79f"/>
			<stop offset=".8" stop-color="#00ccec"/>
			<stop offset="1" stop-color="#69dbff"/>
		</linearGradient>
		<linearGradient id="g14" x1="775.4" y1="638.7" x2="723.5" y2="688.7" gradientUnits="userSpaceOnUse">
			<stop offset="0" stop-color="#ffffff"/>
			<stop offset="1" stop-color="#4d4d4d"/>
		</linearGradient>
		<linearGradient id="g15" x1="592.2" y1="498.1" x2="1249.4" y2="445.7" gradientUnits="userSpaceOnUse">
			<stop offset="0" stop-color="#812500"/>
			<stop offset=".2" stop-color="#b30056"/>
			<stop offset=".3" stop-color="#ff5945"/>
			<stop offset=".4" stop-color="#ffbd2d"/>
			<stop offset=".5" stop-color="#f5ff43"/>
			<stop offset=".6" stop-color="#82e82d"/>
			<stop offset=".7" stop-color="#00c79f"/>
			<stop offset=".8" stop-color="#00ccec"/>
			<stop offset="1" stop-color="#69dbff"/>
		</linearGradient>
		<linearGradient id="g16" x1="521.3" y1="495.9" x2="1273.3" y2="435.9" gradientUnits="userSpaceOnUse">
			<stop offset="0" stop-color="#812500"/>
			<stop offset=".2" stop-color="#b30056"/>
			<stop offset=".3" stop-color="#ff5945"/>
			<stop offset=".4" stop-color="#ffbd2d"/>
			<stop offset=".5" stop-color="#f5ff43"/>
			<stop offset=".6" stop-color="#82e82d"/>
			<stop offset=".7" stop-color="#00c79f"/>
			<stop offset=".8" stop-color="#00ccec"/>
			<stop offset="1" stop-color="#69dbff"/>
		</linearGradient>
		<linearGradient id="g17" x1="558.9" y1="529.4" x2="1259.4" y2="473.5" gradientUnits="userSpaceOnUse">
			<stop offset="0" stop-color="#812500"/>
			<stop offset=".2" stop-color="#b30056"/>
			<stop offset=".3" stop-color="#ff5945"/>
			<stop offset=".4" stop-color="#ffbd2d"/>
			<stop offset=".5" stop-color="#f5ff43"/>
			<stop offset=".6" stop-color="#82e82d"/>
			<stop offset=".7" stop-color="#00c79f"/>
			<stop offset=".8" stop-color="#00ccec"/>
			<stop offset="1" stop-color="#69dbff"/>
		</linearGradient>
		<linearGradient id="g18" x1="619.7" y1="484.6" x2="700.5" y2="484.6" gradientUnits="userSpaceOnUse">
			<stop offset="0" stop-color="#b3b3b3"/>
			<stop offset=".9" stop-color="#ffffff"/>
		</linearGradient>
		<linearGradient id="g19" x1="1055.3" y1="543.4" x2="945.3" y2="649.4" gradientUnits="userSpaceOnUse">
			<stop offset="0" stop-color="#ffffff"/>
			<stop offset="1" stop-color="#4d4d4d"/>
		</linearGradient>
		<linearGradient id="g20" x1="982.1" y1="534" x2="892.3" y2="620.6" gradientUnits="userSpaceOnUse">
			<stop offset="0" stop-color="#ffffff"/>
			<stop offset="1" stop-color="#4d4d4d"/>
		</linearGradient>
		<linearGradient id="g21" x1="1088.8" y1="583.3" x2="1056.6" y2="614.3" gradientUnits="userSpaceOnUse">
			<stop offset="0" stop-color="#ffffff"/>
			<stop offset="1" stop-color="#4d4d4d"/>
		</linearGradient>
		<linearGradient id="g22" x1="1117.8" y1="470.4" x2="1135.8" y2="675.1" gradientUnits="userSpaceOnUse">
			<stop offset="0" stop-color="#ffffff"/>
			<stop offset="1" stop-color="#4d4d4d"/>
		</linearGradient>
		<linearGradient id="g23" x1="845.9" y1="292.1" x2="812" y2="576.2" gradientUnits="userSpaceOnUse">
			<stop offset="0" stop-color="#ffffff"/>
			<stop offset="1" stop-color="#4d4d4d"/>
		</linearGradient>
		<linearGradient id="g24" x1="1148.2" y1="670.7" x2="1148.5" y2="670.7" gradientUnits="userSpaceOnUse">
			<stop offset=".2" stop-color="#0b0078"/>
			<stop offset=".6" stop-color="#0006c0"/>
			<stop offset=".8" stop-color="#0071bc"/>
		</linearGradient>
		<linearGradient id="g25" x1="798.3" y1="120.9" x2="278.3" y2="686.9" gradientUnits="userSpaceOnUse">
			<stop offset="0" stop-color="#812500"/>
			<stop offset=".2" stop-color="#b30056"/>
			<stop offset=".3" stop-color="#ff5945"/>
			<stop offset=".4" stop-color="#ffbd2d"/>
			<stop offset=".5" stop-color="#f5ff43"/>
			<stop offset=".6" stop-color="#82e82d"/>
			<stop offset=".7" stop-color="#00c79f"/>
			<stop offset=".8" stop-color="#00ccec"/>
			<stop offset="1" stop-color="#69dbff"/>
		</linearGradient>
		<linearGradient id="g26" x1="855.4" y1="54.1" x2="335.4" y2="620.1" gradientUnits="userSpaceOnUse">
			<stop offset="0" stop-color="#812500"/>
			<stop offset=".2" stop-color="#b30056"/>
			<stop offset=".3" stop-color="#ff5945"/>
			<stop offset=".4" stop-color="#ffbd2d"/>
			<stop offset=".5" stop-color="#f5ff43"/>
			<stop offset=".6" stop-color="#82e82d"/>
			<stop offset=".7" stop-color="#00c79f"/>
			<stop offset=".8" stop-color="#00ccec"/>
			<stop offset="1" stop-color="#69dbff"/>
		</linearGradient>
		<linearGradient id="g27" x1="868.3" y1="141.9" x2="348.3" y2="707.9" gradientUnits="userSpaceOnUse">
			<stop offset="0" stop-color="#812500"/>
			<stop offset=".2" stop-color="#b30056"/>
			<stop offset=".3" stop-color="#ff5945"/>
			<stop offset=".4" stop-color="#ffbd2d"/>
			<stop offset=".5" stop-color="#f5ff43"/>
			<stop offset=".6" stop-color="#82e82d"/>
			<stop offset=".7" stop-color="#00c79f"/>
			<stop offset=".8" stop-color="#00ccec"/>
			<stop offset="1" stop-color="#69dbff"/>
		</linearGradient>
	</defs>
	<style>
		.s0 { fill: url(#g1) } 
		.s1 { fill: url(#g2) } 
		.s2 { fill: url(#g3) } 
		.s3 { fill: url(#g4) } 
		.s4 { fill: url(#g5) } 
		.s5 { fill: url(#g6) } 
		.s6 { fill: url(#g7) } 
		.s7 { fill: url(#g8) } 
		.s8 { fill: url(#g9) } 
		.s9 { fill: url(#g10) } 
		.s10 { opacity: .4;mix-blend-mode: multiply;fill: #666666 } 
		.s11 { fill: url(#g11) } 
		.s12 { fill: url(#g12) } 
		.s13 { fill: url(#g13) } 
		.s14 { opacity: .5;mix-blend-mode: multiply;fill: url(#g14) } 
		.s15 { fill: url(#g15) } 
		.s16 { fill: url(#g16) } 
		.s17 { fill: url(#g17) } 
		.s18 { fill: #ffffff } 
		.s19 { fill: url(#g18) } 
		.s20 { fill: #000000 } 
		.s21 { opacity: .5;mix-blend-mode: multiply;fill: url(#g19) } 
		.s22 { opacity: .5;mix-blend-mode: multiply;fill: url(#g20) } 
		.s23 { opacity: .5;mix-blend-mode: multiply;fill: url(#g21) } 
		.s24 { opacity: .5;mix-blend-mode: multiply;fill: url(#g22) } 
		.s25 { opacity: .5;mix-blend-mode: multiply;fill: url(#g23) } 
		.s26 { fill: url(#g24) } 
		.s27 { fill: url(#g25) } 
		.s28 { fill: url(#g26) } 
		.s29 { fill: url(#g27) } 
	</style>
	<g id="graphics">
		<g id="&lt;Group&gt;">
			<g id="&lt;Group&gt;">
				<path id="&lt;Path&gt;" class="s0" d="m711 697.1c-89.6-23-140-90.5-160.1-123.7q20 8.8 36.9 23.2 4 0-10.5-17.5-14.5-17.5-35.3-21.6h0.1c8.3-16.3 36.3-65.2 89.3-102.6 19.8 17.2 63.8 49.7 89.5 133.4 1.4 45.9-5.4 87-9.9 108.8z"/>
				<path id="&lt;Path&gt;" class="s1" d="m799.7 551.9c1 46-4.8 99.2-23.6 156.3 2.4-32.3-1.4-75.1-11.5-118 3.6-58.3-4.2-125.1-44.5-174.9q53.3 42.8 79.6 136.6z"/>
				<path id="&lt;Path&gt;" class="s2" d="m937 439.9q19 41.2 26.5 97.8c-11.3 47.3-32 102.4-69.7 155.9 0-0.1 13-39.7 20.3-90.4 16-47.1 27.9-104.2 22.9-163.3z"/>
				<path id="&lt;Path&gt;" class="s3" d="m953.3 666.1c-14.9 9.1-30.1 16.5-45.4 22.4 15.3-5.9 30.5-13.3 45.4-22.4z"/>
				<path id="&lt;Path&gt;" class="s4" d="m1022.4 498.1q0-0.2 0.1-0.4-0.4-0.3-0.1 0.4z"/>
				<path id="&lt;Path&gt;" class="s5" d="m1022.4 498.1c1.1 2.9 11 19.6 20.9 43-1.9 24.9-7.3 57.8-12.2 80q-4.2-33.5-20.8-78.8c4.8-14.6 8.9-29.4 12.1-44.2z"/>
				<path id="&lt;Path&gt;" class="s6" d="m833.5 400.5q41.7 62.9 50.6 158.3c-8 42.8-24.3 92.2-52.2 148.1q10.8-50.6 10.4-112.6c9.6-58.2 12-128.4-8.8-193.8z"/>
				<path id="&lt;Path&gt;" class="s7" d="m1178.5 463.1l-35.8 94c-5.7-33.3-15.9-68.5-33.6-98z"/>
				<path id="&lt;Path&gt;" class="s8" d="m1100.3 541.2c5.1 30.3 6.7 68.4-1.2 109.2q-3.9-48.2-24.3-92.3c-0.9-25-3.9-49.7-10.3-65.7q17 19.2 35.8 48.8z"/>
				<path id="&lt;Path&gt;" class="s9" d="m610.5 536.7c0-28.7 20.8-52.5 48.2-57.1 18.4 18.6 40 46.8 56.4 91.6-10.5 14.3-27.5 23.5-46.6 23.5-32.1 0-58-25.9-58-58z"/>
				<path id="&lt;Path&gt;" class="s10" d="m616.4 523.5c0-5.8 0.8-11.4 2.4-16.8 8.6-14.1 23-24.3 39.9-27.1 17.7 18 38.5 44.8 54.6 86.9-10.3 9.3-23.9 15-38.9 15-32.1 0-58-25.9-58-58z"/>
				<path id="&lt;Path&gt;" class="s11" d="m870.6 700.1c-13 3.2-25.9 5.4-38.7 6.8 67.5-135.2 66.9-232.6 46.7-289.8 19.6 5.3 39.2 12.8 58.4 22.8 9.5 112.6-42.5 218.4-66.4 260.2z"/>
				<path id="&lt;Path&gt;" class="s12" d="m769.3 399.5c20.4-1.6 42-1.5 64.2 1 39.2 123-4.2 263-21.7 307.9-12.1 0.6-24.1 0.5-35.7-0.2 49-148.8 9.4-271.5-6.8-308.7z"/>
				<path id="&lt;Path&gt;" class="s13" d="m710.9 697.6c9.7-46.4 30-181.9-42.2-264.4 11.5-5.5 23.9-10.3 37.1-14.1q6.9-2 14.3-3.8c74.6 92.1 37.8 242.4 23.7 289.3-11.5-1.8-22.6-4.2-32.9-7z"/>
				<path id="&lt;Path&gt;" class="s14" d="m711 697.1c-12.9-3.3-25-7.5-36.3-12.5 25.7-42.4 36.9-81.2 40-114.6q3.2 8.7 6.2 18.3c1.4 45.9-5.4 86.9-9.9 108.8z"/>
				<path id="&lt;Path&gt;" class="s15" d="m1148.2 676.5c-17.9-10.2-35.7-18.8-49.1-26.1 15.9-81.8-6.6-152.5-18.6-172 6.6-2.7 20.3-13.6 28.6-19.3 50.4 84.1 39.6 213.3 39.1 217.4z"/>
				<path id="&lt;Path&gt;" class="s16" d="m953.3 666.1c-19.4 11.9-39.4 20.8-59.5 27.5 60.2-85.2 77.1-174.9 81.3-229.9 15.8 11.8 31.4 21.4 47.4 34-13.7 63.3-43.7 127.4-69.2 168.4z"/>
				<path id="&lt;Path&gt;" class="s17" d="m1031.1 621.1c7.2-32.8 15.6-88.9 12-108 5-5.5 15.2-14.9 21.4-20.7 14 34.7 11.5 109.9 8 141.3-15.4-6-30-9.3-41.4-12.6z"/>
				<g id="&lt;Group&gt;">
					<circle id="&lt;Path&gt;" class="s18" cx="663.1" cy="532.1" r="40.4"/>
					<circle id="&lt;Path&gt;" class="s19" cx="660.1" cy="529" r="40.4"/>
					<circle id="&lt;Path&gt;" class="s20" cx="660.9" cy="531" r="20"/>
					<ellipse id="&lt;Path&gt;" class="s18" cx="653.9" cy="524" rx="6.1" ry="6.9"/>
				</g>
				<path id="&lt;Path&gt;" class="s21" d="m1000 481.3q-5.8 101.6-106.2 212.3c60.2-85.2 77.1-174.9 81.3-229.9 8.3 6.2 16.6 11.8 24.9 17.6z"/>
				<path id="&lt;Path&gt;" class="s22" d="m850 667.8c49.1-115 46.8-199.2 28.6-250.7 9.8 2.7 19.5 5.8 29.2 9.6 3 34.2 10.3 133.4-57 240-0.2 0.4-0.5 0.7-0.8 1.1z"/>
				<path id="&lt;Path&gt;" class="s23" d="m1043.4 514.8c2.8 10.2 14.9 58.3 6.1 111.4-6.7-1.9-12.9-3.5-18.4-5.1 7-31.9 15.1-85.8 12.3-106.3z"/>
				<path id="&lt;Path&gt;" class="s24" d="m1080.5 478.4q59.5 57.9 33.3 179.7c-5.2-2.7-10.2-5.2-14.7-7.7 15.9-81.8-6.6-152.5-18.6-172z"/>
				<path id="&lt;Path&gt;" class="s25" d="m776.1 708.2c49-148.8 9.4-271.5-6.8-308.7 10.8-0.8 22-1.2 33.4-1 8.7 28.9 37.3 155.7-26.6 309.7z"/>
				<path id="&lt;Path&gt;" class="s26" d="m1148.4 674.7q0 0.9 0.1 1.8-0.1-0.1-0.3-0.2 0.1-0.4 0.2-1.6z"/>
			</g>
			<circle id="&lt;Path&gt;" class="s27" cx="517.3" cy="356.6" r="39.1"/>
			<circle id="&lt;Path&gt;" class="s28" cx="453.3" cy="439.9" r="28"/>
			<circle id="&lt;Path&gt;" class="s29" cx="499.3" cy="508.1" r="18"/>
		</g>
	</g>
</svg>