<?xml version="1.0" encoding="UTF-8" standalone="no"?>
<svg
   xmlns:dc="http://purl.org/dc/elements/1.1/"
   xmlns:cc="http://creativecommons.org/ns#"
   xmlns:rdf="http://www.w3.org/1999/02/22-rdf-syntax-ns#"
   xmlns:svg="http://www.w3.org/2000/svg"
   xmlns="http://www.w3.org/2000/svg"
   xmlns:sodipodi="http://sodipodi.sourceforge.net/DTD/sodipodi-0.dtd"
   xmlns:inkscape="http://www.inkscape.org/namespaces/inkscape"
   width="16"
   height="16"
   version="1.1"
   id="svg4"
   sodipodi:docname="avtar.svg"
   inkscape:version="1.0.2 (e86c870879, 2021-01-15)">
  <metadata
     id="metadata10">
    <rdf:RDF>
      <cc:Work
         rdf:about="">
        <dc:format>image/svg+xml</dc:format>
        <dc:type
           rdf:resource="http://purl.org/dc/dcmitype/StillImage" />
        <dc:title></dc:title>
      </cc:Work>
    </rdf:RDF>
  </metadata>
  <defs
     id="defs8" />
  <sodipodi:namedview
     pagecolor="#ffffff"
     bordercolor="#ffffff"
     borderopacity="1"
     objecttolerance="10"
     gridtolerance="10"
     guidetolerance="10"
     inkscape:pageopacity="0"
     inkscape:pageshadow="2"
     inkscape:window-width="820"
     inkscape:window-height="480"
     id="namedview6"
     showgrid="false"
     inkscape:zoom="12.020815"
     inkscape:cx="5.2791784"
     inkscape:cy="3.3786691"
     inkscape:window-x="0"
     inkscape:window-y="24"
     inkscape:window-maximized="0"
     inkscape:current-layer="svg4" />
  <path
     d="m8-1.65e-7a8 8 0 0 0-8 8 8 8 0 0 0 6.662 7.885 8 8 0 0 0 0.793 0.096 8 8 0 0 0 0.545 0.019 8 8 0 0 0 1.59-0.16 8 8 0 0 0 0.773-0.197 8 8 0 0 0 2.858-1.584 8 8 0 0 0 0.338-0.307 6 6 0 0 0-4e-3 -8e-3 8 8 0 0 0 2.445-5.744 8 8 0 0 0-8-8zm0 1a7 7 0 0 1 7 7 7 7 0 0 1-1.928 4.81 6 6 0 0 0-5.072-2.81 6 6 0 0 0-5.076 2.814 7 7 0 0 1-1.924-4.814 7 7 0 0 1 7-7zm0 3a2 2 0 0 0-2 2 2 2 0 0 0 2 2 2 2 0 0 0 2-2 2 2 0 0 0-2-2z"
     color="#ffffff"
     fill="currentColor"
     id="path2"
     style="fill:#ffffff" />
</svg>
