<?xml version="1.0" encoding="UTF-8" standalone="no"?>
<svg
   xmlns:dc="http://purl.org/dc/elements/1.1/"
   xmlns:cc="http://creativecommons.org/ns#"
   xmlns:rdf="http://www.w3.org/1999/02/22-rdf-syntax-ns#"
   xmlns:svg="http://www.w3.org/2000/svg"
   xmlns="http://www.w3.org/2000/svg"
   xmlns:sodipodi="http://sodipodi.sourceforge.net/DTD/sodipodi-0.dtd"
   xmlns:inkscape="http://www.inkscape.org/namespaces/inkscape"
   width="16"
   height="16"
   version="1.1"
   id="svg8"
   sodipodi:docname="d3.svg"
   inkscape:version="1.0.2 (e86c870879, 2021-01-15)">
  <metadata
     id="metadata14">
    <rdf:RDF>
      <cc:Work
         rdf:about="">
        <dc:format>image/svg+xml</dc:format>
        <dc:type
           rdf:resource="http://purl.org/dc/dcmitype/StillImage" />
      </cc:Work>
    </rdf:RDF>
  </metadata>
  <defs
     id="defs12" />
  <sodipodi:namedview
     pagecolor="#ffffff"
     bordercolor="#666666"
     borderopacity="1"
     objecttolerance="10"
     gridtolerance="10"
     guidetolerance="10"
     inkscape:pageopacity="0"
     inkscape:pageshadow="2"
     inkscape:window-width="744"
     inkscape:window-height="480"
     id="namedview10"
     showgrid="false"
     inkscape:zoom="34"
     inkscape:cx="8"
     inkscape:cy="8"
     inkscape:window-x="0"
     inkscape:window-y="24"
     inkscape:window-maximized="0"
     inkscape:current-layer="svg8" />
  <g
     transform="translate(-613,191)"
     id="g4"
     style="fill:#ffffff">
    <path
       d="m 620.25,-190 c -0.13807,0 -0.25,0.11193 -0.25,0.25 v 1.5 c 0,0.139 0.112,0.25 0.25,0.25 h 0.5 c 0.13807,0 0.25,-0.11193 0.25,-0.25 v -1.5 c 0,-0.13807 -0.11193,-0.25 -0.25,-0.25 z m -4.699,1.947 c -0.0667,-3.8e-4 -0.13078,0.0259 -0.178,0.073 l -0.353,0.353 c -0.0979,0.0977 -0.0979,0.25632 0,0.354 l 1.06,1.06 c 0.0977,0.0979 0.25632,0.0979 0.354,0 l 0.353,-0.353 c 0.0979,-0.0977 0.0979,-0.25632 0,-0.354 l -1.06,-1.06 c -0.0465,-0.047 -0.10991,-0.0733 -0.176,-0.073 z m 9.898,0 c -0.0657,-3e-5 -0.12877,0.0263 -0.175,0.073 l -1.06,1.06 c -0.0979,0.0977 -0.0979,0.25632 0,0.354 l 0.353,0.353 c 0.0976,0.0973 0.25543,0.0973 0.353,0 l 1.06,-1.06 c 0.0979,-0.0977 0.0979,-0.25632 0,-0.354 l -0.353,-0.353 c -0.0472,-0.0471 -0.1113,-0.0734 -0.178,-0.073 z M 613.25,-183 c -0.13807,0 -0.25,0.11193 -0.25,0.25 v 0.5 c 0,0.139 0.112,0.25 0.25,0.25 h 1.5 c 0.13807,0 0.25,-0.11193 0.25,-0.25 v -0.5 c 0,-0.13807 -0.11193,-0.25 -0.25,-0.25 z m 13,0 c -0.13807,0 -0.25,0.11193 -0.25,0.25 v 0.5 c 0,0.139 0.112,0.25 0.25,0.25 h 1.5 c 0.13807,0 0.25,-0.11193 0.25,-0.25 v -0.5 c 0,-0.13807 -0.11193,-0.25 -0.25,-0.25 z m -9.992,4.139 c -0.0668,1e-4 -0.13082,0.0267 -0.178,0.074 l -1.06,1.06 c -0.0979,0.0977 -0.0979,0.25632 0,0.354 l 0.353,0.353 c 0.0977,0.0979 0.25632,0.0979 0.354,0 l 1.06,-1.06 c 0.0979,-0.0977 0.0979,-0.25632 0,-0.354 l -0.353,-0.353 c -0.0464,-0.0472 -0.10981,-0.0738 -0.176,-0.074 z m 8.484,0 c -0.0658,4.6e-4 -0.1288,0.0271 -0.175,0.074 l -0.354,0.353 c -0.0979,0.0977 -0.0979,0.25632 0,0.354 l 1.06,1.06 c 0.0977,0.0979 0.25632,0.0979 0.354,0 l 0.354,-0.353 c 0.0979,-0.0977 0.0979,-0.25632 0,-0.354 l -1.06,-1.06 c -0.0474,-0.0475 -0.11186,-0.0742 -0.179,-0.074 z M 620.25,-177 c -0.13807,0 -0.25,0.11193 -0.25,0.25 v 1.5 c 0,0.139 0.112,0.25 0.25,0.25 h 0.5 c 0.13807,0 0.25,-0.11193 0.25,-0.25 v -1.5 c 0,-0.13807 -0.11193,-0.25 -0.25,-0.25 z"
       color="#000000"
       fill="#ffffff"
       overflow="visible"
       style="isolation:auto;mix-blend-mode:normal;fill:#ffffff"
       id="path2" />
  </g>
  <circle
     cx="7.5"
     cy="8.5"
     r="3.5"
     fill="#ffffff"
     fill-rule="evenodd"
     style="paint-order:stroke fill markers;fill:#ffffff"
     id="circle6" />
</svg>
